<?xml version="1.0" encoding="utf-8"?>
<!-- Generator: Adobe Illustrator 18.0.0, SVG Export Plug-In . SVG Version: 6.00 Build 0)  -->
<!DOCTYPE svg PUBLIC "-//W3C//DTD SVG 1.1//EN" "http://www.w3.org/Graphics/SVG/1.1/DTD/svg11.dtd">
<svg version="1.1" id="kevent" xmlns="http://www.w3.org/2000/svg" xmlns:xlink="http://www.w3.org/1999/xlink" x="0px" y="0px"
	 viewBox="0 0 2732 2732" enable-background="new 0 0 2732 2732" xml:space="preserve">
<path fill="#FFFFFF" d="M35.8,1722.1h10.7c97.7-45.4,221.3-85,365.9-117.3v-150.9l-251.1,52.7v-146.5h197.4v-125.6H161.4v-113.3
	h251.1v-110.4H35.8V1722.1z"/>
<path fill="#FFFFFF" d="M783.1,1387.9l-105.5-377.1H546.3L698.2,1516l0.5,1v0.5l6.4,20.5l5.4,15.6c41.1-5.4,83.5-9.7,126-14.2
	l0.5-1.4l7.3-22l152.4-505.1h-104L783.1,1387.9z"/>
<polygon fill="#FFFFFF" points="1162.8,1537.5 1539.4,1537.5 1539.4,1433.4 1288.4,1433.4 1288.4,1318.1 1485.6,1318.1 1485.6,1219 
	1288.4,1219 1288.4,1111 1539.4,1111 1539.4,1010.9 1162.8,1010.9 "/>
<path fill="#FFFFFF" d="M2043.5,1286.9c0,8.3,0.5,20.1,1.9,35.2l-179.3-311.2h-133.4V1535c11.3,1,22.5,1.9,33.8,2.9
	c21,1.9,41.6,4.4,62,6.4v-321.5c0-6.4-0.5-13.7-1.4-22.5c-0.5-3.4-0.5-9.3-1-18l203.7,350.7h-1l25.4,42.5
	c28.4,4.4,61.5,9.7,88.9,15.1v-579.8l-99.6,0.5V1286.9L2043.5,1286.9z"/>
<path fill="#FFFFFF" d="M2695.7,1009.9h-386.9v104.5h131.4v556.4c45.4,15.1,87,31.2,125.1,48.9v-604.2h131v-104.5L2695.7,1009.9z"/>
</svg>
