<?xml version="1.0" encoding="utf-8"?>
<!-- Generator: Adobe Illustrator 18.0.0, SVG Export Plug-In . SVG Version: 6.00 Build 0)  -->
<!DOCTYPE svg PUBLIC "-//W3C//DTD SVG 1.1//EN" "http://www.w3.org/Graphics/SVG/1.1/DTD/svg11.dtd">
<svg version="1.1" id="klogo" xmlns="http://www.w3.org/2000/svg" xmlns:xlink="http://www.w3.org/1999/xlink" x="0px" y="0px"
	 viewBox="0 0 1212.3 542.2" enable-background="new 0 0 1212.3 542.2" xml:space="preserve">
<g id="logop">
	<g id="logoPlayplay">
		<g>
			<g>
				<rect x="1002.1" y="79.7" fill="#B2B2B2" width="15.1" height="53.4"/>
				<rect x="1002.1" y="145.6" fill="#B2B2B2" width="15.1" height="53.4"/>
				<rect x="1002.1" y="211.5" fill="#B2B2B2" width="15.1" height="53.4"/>
				<rect x="1002.1" y="277.4" fill="#B2B2B2" width="15.1" height="53.4"/>
				<rect x="1002.1" y="343.3" fill="#B2B2B2" width="15.1" height="53.4"/>
				<rect x="1026.6" y="79.7" fill="#B2B2B2" width="15.1" height="53.4"/>
				<rect x="1051.1" y="79.7" fill="#B2B2B2" width="15.1" height="53.4"/>
				<rect x="1075.7" y="79.7" fill="#B2B2B2" width="15.1" height="53.4"/>
				<rect x="1100.2" y="79.7" fill="#B2B2B2" width="15.1" height="53.4"/>
				<rect x="1124.7" y="79.7" fill="#B2B2B2" width="15.1" height="53.4"/>
				<rect x="1149.2" y="79.7" fill="#B2B2B2" width="15.1" height="53.4"/>
				<rect x="1173.7" y="79.7" fill="#B2B2B2" width="15.1" height="53.4"/>
				<rect x="1197.2" y="79.7" fill="#B2B2B2" width="15.1" height="53.4"/>
				<rect x="1026.6" y="145.6" fill="#B2B2B2" width="15.1" height="53.4"/>
				<rect x="1051.1" y="145.6" fill="#B2B2B2" width="15.1" height="53.4"/>
				<rect x="1075.7" y="145.6" fill="#B2B2B2" width="15.1" height="53.4"/>
				<rect x="1100.2" y="145.6" fill="#B2B2B2" width="15.1" height="53.4"/>
				<rect x="1026.6" y="211.5" fill="#B2B2B2" width="15.1" height="53.4"/>
				<rect x="1051.1" y="211.5" fill="#B2B2B2" width="15.1" height="53.4"/>
				<rect x="1075.7" y="211.5" fill="#B2B2B2" width="15.1" height="53.4"/>
				<rect x="1100.2" y="211.5" fill="#B2B2B2" width="15.1" height="53.4"/>
				<rect x="1124.7" y="211.5" fill="#B2B2B2" width="15.1" height="53.4"/>
				<rect x="1149.2" y="211.5" fill="#B2B2B2" width="15.1" height="53.4"/>
				<rect x="1026.6" y="277.4" fill="#B2B2B2" width="15.1" height="53.4"/>
				<rect x="1051.1" y="277.4" fill="#B2B2B2" width="15.1" height="53.4"/>
				<rect x="1026.6" y="343.3" fill="#B2B2B2" width="15.1" height="53.4"/>
				<rect x="1051.1" y="343.3" fill="#B2B2B2" width="15.1" height="53.4"/>
				<rect x="1075.7" y="343.3" fill="#B2B2B2" width="15.1" height="53.4"/>
				<rect x="1100.2" y="343.3" fill="#B2B2B2" width="15.1" height="53.4"/>
				<rect x="1125.2" y="343.3" fill="#B2B2B2" width="15.1" height="53.4"/>
				<rect x="1150.3" y="343.3" fill="#B2B2B2" width="15.1" height="53.4"/>
				<rect x="1175.3" y="343.3" fill="#B2B2B2" width="15.1" height="53.4"/>
			</g>
			<g>
				<rect x="195.1" y="79.8" fill="#B2B2B2" width="15.1" height="53.4"/>
				<rect x="195.1" y="145.7" fill="#B2B2B2" width="15.1" height="53.4"/>
				<rect x="195.1" y="211.6" fill="#B2B2B2" width="15.1" height="53.4"/>
				<rect x="195.1" y="277.5" fill="#B2B2B2" width="15.1" height="53.4"/>
				<rect x="195.1" y="343.3" fill="#B2B2B2" width="15.1" height="53.4"/>
				<rect x="170.6" y="79.8" fill="#B2B2B2" width="15.1" height="53.4"/>
				<rect x="146.1" y="79.8" fill="#B2B2B2" width="15.1" height="53.4"/>
				<rect x="121.6" y="79.8" fill="#B2B2B2" width="15.1" height="53.4"/>
				<rect x="97.1" y="79.8" fill="#B2B2B2" width="15.1" height="53.4"/>
				<rect x="72.6" y="79.8" fill="#B2B2B2" width="15.1" height="53.4"/>
				<rect x="48" y="79.8" fill="#B2B2B2" width="15.1" height="53.4"/>
				<rect x="23.5" y="79.8" fill="#B2B2B2" width="15.1" height="53.4"/>
				<rect x="0" y="79.8" fill="#B2B2B2" width="15.1" height="53.4"/>
				<rect x="170.6" y="145.7" fill="#B2B2B2" width="15.1" height="53.4"/>
				<rect x="146.1" y="145.7" fill="#B2B2B2" width="15.1" height="53.4"/>
				<rect x="121.6" y="145.7" fill="#B2B2B2" width="15.1" height="53.4"/>
				<rect x="97.1" y="145.7" fill="#B2B2B2" width="15.1" height="53.4"/>
				<rect x="170.6" y="211.6" fill="#B2B2B2" width="15.1" height="53.4"/>
				<rect x="146.1" y="211.6" fill="#B2B2B2" width="15.1" height="53.4"/>
				<rect x="121.6" y="211.6" fill="#B2B2B2" width="15.1" height="53.4"/>
				<rect x="97.1" y="211.6" fill="#B2B2B2" width="15.1" height="53.4"/>
				<rect x="72.6" y="211.6" fill="#B2B2B2" width="15.1" height="53.4"/>
				<rect x="48" y="211.6" fill="#B2B2B2" width="15.1" height="53.4"/>
				<rect x="170.6" y="277.5" fill="#B2B2B2" width="15.1" height="53.4"/>
				<rect x="146.1" y="277.5" fill="#B2B2B2" width="15.1" height="53.4"/>
				<rect x="170.6" y="343.3" fill="#B2B2B2" width="15.1" height="53.4"/>
				<rect x="146.1" y="343.3" fill="#B2B2B2" width="15.1" height="53.4"/>
				<rect x="121.6" y="343.3" fill="#B2B2B2" width="15.1" height="53.4"/>
				<rect x="97.1" y="343.3" fill="#B2B2B2" width="15.1" height="53.4"/>
				<rect x="72" y="343.3" fill="#B2B2B2" width="15.1" height="53.4"/>
				<rect x="47" y="343.3" fill="#B2B2B2" width="15.1" height="53.4"/>
				<rect x="21.9" y="343.3" fill="#B2B2B2" width="15.1" height="53.4"/>
			</g>
			<g>
				<path fill="#DB3345" d="M273.2,126.9H308v94.5h1.1l39.7-94.5h34.6l-44.3,101.4l49.2,114.9h-37.2l-42.1-102.9H308v102.9h-34.8
					V126.9z"/>
				<path fill="#DB3345" d="M467.1,345.1c-3.7,0-7.6-0.3-11.9-0.8c-4.3-0.5-8.5-1.7-12.7-3.5c-4.2-1.8-8.3-4.3-12.1-7.5
					c-3.9-3.2-7.3-7.5-10.3-12.9c-3-5.3-5.4-11.9-7.2-19.7c-1.8-7.8-2.7-17.1-2.7-27.9v-76.6c0-10.9,0.9-20.2,2.8-27.9
					c1.8-7.7,4.3-14.2,7.3-19.5c3-5.3,6.5-9.5,10.4-12.6c3.9-3.1,8-5.5,12.2-7.2c4.2-1.6,8.5-2.7,12.7-3.2c4.2-0.5,8.1-0.8,11.7-0.8
					c3.4,0,7.2,0.2,11.3,0.7c4.2,0.5,8.3,1.5,12.5,3c4.2,1.6,8.2,3.9,12.1,7c3.9,3.1,7.4,7.3,10.5,12.5c3,5.3,5.5,11.8,7.3,19.6
					c1.8,7.8,2.8,17.2,2.8,28.3v76.6c0,10.7-0.9,19.9-2.8,27.7s-4.3,14.3-7.4,19.6c-3,5.4-6.6,9.7-10.5,12.9
					c-4,3.3-8.1,5.8-12.2,7.6c-4.2,1.8-8.3,3-12.4,3.6C474.1,344.8,470.4,345.1,467.1,345.1z M467.1,320.4c3.4,0,6.4-0.5,8.9-1.6
					c2.5-1.1,4.7-3,6.3-5.7c1.7-2.7,2.9-6.3,3.8-10.7c0.8-4.4,1.3-10,1.3-16.8v-98.4c0-6.9-0.4-12.7-1.3-17.3
					c-0.9-4.6-2.1-8.4-3.8-11.2c-1.7-2.8-3.8-4.8-6.3-6c-2.5-1.2-5.5-1.8-8.9-1.8c-3.5,0-6.5,0.6-9.1,1.8c-2.6,1.2-4.7,3.2-6.4,6
					c-1.7,2.8-3,6.6-3.8,11.2c-0.9,4.6-1.3,10.4-1.3,17.3v98.4c0,6.8,0.4,12.3,1.3,16.8c0.8,4.4,2.1,8,3.8,10.7
					c1.7,2.7,3.8,4.6,6.4,5.7C460.5,319.8,463.6,320.4,467.1,320.4z"/>
				<path fill="#DB3345" d="M555.8,299.4c0-4.6,0.3-8.9,0.9-12.9c0.6-3.9,1.5-8.2,2.6-12.7h27v10.5c0,5.8,0.4,11,1.1,15.4
					c0.8,4.5,2,8.3,3.8,11.3c1.7,3.1,4.1,5.4,7,7c2.9,1.6,6.5,2.3,10.7,2.3c6.6,0,11.7-1.7,15.2-5.1s5.2-8.4,5.2-15
					c0-3.4-0.2-6.5-0.7-9.3c-0.5-2.8-1.3-5.6-2.5-8.4c-1.2-2.8-2.8-5.7-4.9-8.8c-2.1-3.1-4.7-6.5-7.9-10.3l-36.2-40.6
					c-6.4-7.8-11.4-15.6-14.9-23.5c-3.5-7.9-5.2-16.3-5.2-25.3c0-7.2,1.2-13.8,3.6-19.8c2.4-6,5.8-11.2,10.3-15.5
					c4.5-4.3,10-7.7,16.6-10.1c6.6-2.4,14-3.6,22.3-3.6c10.1,0,18.5,1.4,25.3,4.1c6.8,2.7,12.1,6.2,16.2,10.6
					c4,4.4,6.9,9.3,8.5,14.8c1.7,5.4,2.5,10.9,2.5,16.4c0,4.6-0.4,8.9-1.1,12.9c-0.8,3.9-1.6,8.3-2.6,13h-26.8v-10.3
					c0-11.5-1.7-20.3-5.2-26.4c-3.5-6.1-9.2-9.2-17-9.2c-6.5,0-11.4,1.7-14.6,5.1c-3.2,3.4-4.8,8-4.8,13.7c0,3,0.2,5.8,0.7,8.2
					c0.5,2.4,1.2,4.7,2.1,6.8c0.9,2.1,2.1,4.1,3.4,6c1.3,1.9,2.9,4,4.6,6.1l40.4,46.1c7.3,9,13,17.7,16.9,26
					c3.9,8.3,5.9,17.1,5.9,26.4c0,7.7-1.3,14.6-3.8,20.8c-2.5,6.2-6.2,11.4-10.9,15.7c-4.7,4.3-10.5,7.6-17.2,9.9
					c-6.7,2.3-14.3,3.5-22.7,3.5c-10.4,0-19-1.3-25.8-3.9c-6.8-2.6-12.3-6.1-16.4-10.4c-4.1-4.3-6.9-9.2-8.6-14.7
					C556.6,310.7,555.8,305.1,555.8,299.4z"/>
				<path fill="#DB3345" d="M692.4,299.4c0-4.6,0.3-8.9,0.9-12.9c0.6-3.9,1.5-8.2,2.6-12.7h27v10.5c0,5.8,0.4,11,1.1,15.4
					c0.8,4.5,2,8.3,3.8,11.3c1.7,3.1,4.1,5.4,7,7c2.9,1.6,6.5,2.3,10.7,2.3c6.6,0,11.7-1.7,15.2-5.1s5.2-8.4,5.2-15
					c0-3.4-0.2-6.5-0.7-9.3c-0.5-2.8-1.3-5.6-2.5-8.4c-1.2-2.8-2.8-5.7-4.9-8.8c-2.1-3.1-4.7-6.5-7.9-10.3l-36.2-40.6
					c-6.4-7.8-11.4-15.6-14.9-23.5c-3.5-7.9-5.2-16.3-5.2-25.3c0-7.2,1.2-13.8,3.6-19.8c2.4-6,5.8-11.2,10.3-15.5
					c4.5-4.3,10-7.7,16.6-10.1c6.6-2.4,14-3.6,22.3-3.6c10.1,0,18.5,1.4,25.3,4.1c6.8,2.7,12.1,6.2,16.2,10.6
					c4,4.4,6.9,9.3,8.5,14.8c1.7,5.4,2.5,10.9,2.5,16.4c0,4.6-0.4,8.9-1.1,12.9c-0.8,3.9-1.6,8.3-2.6,13h-26.8v-10.3
					c0-11.5-1.7-20.3-5.2-26.4c-3.5-6.1-9.2-9.2-17-9.2c-6.5,0-11.4,1.7-14.6,5.1c-3.2,3.4-4.8,8-4.8,13.7c0,3,0.2,5.8,0.7,8.2
					c0.5,2.4,1.2,4.7,2.1,6.8c0.9,2.1,2.1,4.1,3.4,6c1.3,1.9,2.9,4,4.6,6.1l40.4,46.1c7.3,9,13,17.7,16.9,26
					c3.9,8.3,5.9,17.1,5.9,26.4c0,7.7-1.3,14.6-3.8,20.8c-2.5,6.2-6.2,11.4-10.9,15.7c-4.7,4.3-10.5,7.6-17.2,9.9
					c-6.7,2.3-14.3,3.5-22.7,3.5c-10.4,0-19-1.3-25.8-3.9c-6.8-2.6-12.3-6.1-16.4-10.4c-4.1-4.3-6.9-9.2-8.6-14.7
					C693.2,310.7,692.4,305.1,692.4,299.4z"/>
				<path fill="#DB3345" d="M863,126.9h40l42.4,216.3h-35.2l-6.3-38.7H862l-6,38.7h-35.3L863,126.9z M899.9,279.7L883.8,172h-1.5
					l-16.2,107.8H899.9z"/>
			</g>
			<path fill="none" stroke="#B2B2B2" stroke-width="11.1854" stroke-miterlimit="10" d="M939.1,437.9H273.3
				c-27.9,0-50.5-22.6-50.5-50.5V89.2c0-27.9,22.6-50.5,50.5-50.5h665.8c27.9,0,50.5,22.6,50.5,50.5v298.2
				C989.6,415.2,967,437.9,939.1,437.9z"/>
		</g>
		
			<line fill="none" stroke="#FFFFFF" stroke-width="8" stroke-linecap="round" stroke-miterlimit="10" x1="448.2" y1="4" x2="764.8" y2="4"/>
	</g>
	<rect id="rectPlay" x="352.7" y="383.6" fill="#DC3445" width="499.1" height="158.6"/>
	<g>
		<path fill="#FEFDFD" d="M499.7,412.5h13.8c1.7,0,3.6,0.1,5.7,0.2c2.1,0.2,4.2,0.5,6.2,1.1c2.1,0.6,4.1,1.4,6,2.6
			c1.9,1.1,3.6,2.7,5.1,4.7c1.5,2,2.7,4.4,3.6,7.4c0.9,3,1.4,6.6,1.4,10.8v3c0,4.6-0.4,8.6-1.3,11.9c-0.8,3.3-1.9,6.1-3.3,8.3
			c-1.4,2.2-3,4-4.8,5.4c-1.8,1.3-3.7,2.4-5.7,3.1c-2,0.7-4,1.1-6,1.4c-2,0.2-3.9,0.3-5.7,0.3h-1.3v26.3h-13.8V412.5z M514.2,462.9
			c2.5,0,4.6-0.3,6.3-1s3.1-1.8,4.1-3.2c1-1.5,1.7-3.4,2.2-5.7c0.4-2.3,0.7-5.1,0.7-8.3v-7.8c0-2.6-0.2-4.8-0.6-6.6
			c-0.4-1.9-1.1-3.4-2.1-4.6c-1-1.2-2.4-2.1-4.1-2.7c-1.7-0.6-3.9-0.9-6.4-0.9h-0.7v40.9H514.2z"/>
		<path fill="#FEFDFD" d="M562.2,406.9h13.5v92h-13.5V406.9z"/>
		<path fill="#FEFDFD" d="M610.7,499.6c-2.3,0-4.3-0.4-6-1.3c-1.8-0.9-3.2-2-4.4-3.5c-1.2-1.5-2.1-3.2-2.7-5.3
			c-0.6-2-0.9-4.3-0.9-6.6c0-2.9,0.4-5.4,1.1-7.6c0.7-2.2,1.8-4.2,3.3-6c1.4-1.8,3.2-3.4,5.3-4.9c2.1-1.5,4.6-2.9,7.4-4.2
			c1.3-0.6,2.9-1.3,4.6-1.9c1.7-0.7,3.2-1.2,4.5-1.7v-9.2c0-1.3-0.1-2.6-0.2-3.8c-0.1-1.2-0.4-2.2-0.8-3s-1-1.5-1.8-2
			c-0.8-0.5-1.9-0.7-3.4-0.7c-1,0-1.9,0.2-2.8,0.5c-0.9,0.3-1.7,0.9-2.4,1.7c-0.7,0.8-1.2,1.9-1.7,3.2c-0.4,1.3-0.6,3-0.6,5v3h-10.3
			c-0.3-1.3-0.6-2.5-0.7-3.6c-0.2-1.1-0.2-2.2-0.2-3.3c0-2.6,0.5-4.9,1.4-6.9c0.9-2,2.3-3.7,3.9-5c1.7-1.3,3.7-2.4,6-3.1
			c2.3-0.7,4.9-1,7.7-1c3.7,0,6.7,0.4,9.1,1.1c2.4,0.8,4.3,1.9,5.8,3.4c1.4,1.5,2.4,3.4,3,5.7c0.6,2.3,0.9,5,0.9,8v52.1h-10l-1-6
			c-1.5,2-3.4,3.6-5.8,4.9C616.6,499,613.9,499.6,610.7,499.6z M616.7,489.7c1.1,0,2.2-0.3,3.3-0.8c1.1-0.6,2-1.2,2.7-2V465
			c-0.7,0.3-1.5,0.6-2.4,1c-0.9,0.4-1.8,0.9-2.9,1.5c-1,0.6-1.9,1.3-2.8,2.1c-0.9,0.8-1.7,1.8-2.5,2.9c-0.7,1.1-1.3,2.4-1.8,3.8
			c-0.4,1.4-0.7,3-0.7,4.7c0,2.7,0.5,4.8,1.6,6.4C612.5,488.9,614.3,489.7,616.7,489.7z"/>
		<path fill="#FEFDFD" d="M663.5,512c1.7-0.4,3.2-1.1,4.4-2.2c1.2-1.1,2.2-2.5,2.9-4.3s1.1-3.9,1.3-6.3l-17.4-70h13.7l7.7,38.5
			l2.2,13.3h0.4l1.5-13.3l6.2-38.5h13.3l-15.4,72.2c-0.7,3.3-1.5,6.3-2.6,8.7c-1,2.5-2.3,4.6-3.9,6.2c-1.5,1.7-3.4,2.9-5.5,3.7
			c-2.1,0.8-4.6,1.2-7.5,1.2c-2.3,0-4.7-0.4-7.1-1.3l0.1-7.8C660,512.5,661.8,512.4,663.5,512z"/>
	</g>
</g>
</svg>
