<?xml version="1.0" encoding="utf-8"?>
<!-- Generator: Adobe Illustrator 18.0.0, SVG Export Plug-In . SVG Version: 6.00 Build 0)  -->
<!DOCTYPE svg PUBLIC "-//W3C//DTD SVG 1.1//EN" "http://www.w3.org/Graphics/SVG/1.1/DTD/svg11.dtd">
<svg version="1.1" id="klogo" xmlns="http://www.w3.org/2000/svg" xmlns:xlink="http://www.w3.org/1999/xlink" x="0px" y="0px"
	 viewBox="0 0 1212.3 473" enable-background="new 0 0 1212.3 473" xml:space="preserve">
<g id="logo">
	<g>
		<g>
			<rect x="1002.1" y="77.3" fill="#FFFFFF" width="15.1" height="53.4"/>
			<rect x="1002.1" y="143.2" fill="#FFFFFF" width="15.1" height="53.4"/>
			<rect x="1002.1" y="209.1" fill="#FFFFFF" width="15.1" height="53.4"/>
			<rect x="1002.1" y="275" fill="#FFFFFF" width="15.1" height="53.4"/>
			<rect x="1002.1" y="340.9" fill="#FFFFFF" width="15.1" height="53.4"/>
			<rect x="1026.6" y="77.3" fill="#FFFFFF" width="15.1" height="53.4"/>
			<rect x="1051.1" y="77.3" fill="#FFFFFF" width="15.1" height="53.4"/>
			<rect x="1075.7" y="77.3" fill="#FFFFFF" width="15.1" height="53.4"/>
			<rect x="1100.2" y="77.3" fill="#FFFFFF" width="15.1" height="53.4"/>
			<rect x="1124.7" y="77.3" fill="#FFFFFF" width="15.1" height="53.4"/>
			<rect x="1149.2" y="77.3" fill="#FFFFFF" width="15.1" height="53.4"/>
			<rect x="1173.7" y="77.3" fill="#FFFFFF" width="15.1" height="53.4"/>
			<rect x="1197.2" y="77.3" fill="#FFFFFF" width="15.1" height="53.4"/>
			<rect x="1026.6" y="143.2" fill="#FFFFFF" width="15.1" height="53.4"/>
			<rect x="1051.1" y="143.2" fill="#FFFFFF" width="15.1" height="53.4"/>
			<rect x="1075.7" y="143.2" fill="#FFFFFF" width="15.1" height="53.4"/>
			<rect x="1100.2" y="143.2" fill="#FFFFFF" width="15.1" height="53.4"/>
			<rect x="1026.6" y="209.1" fill="#FFFFFF" width="15.1" height="53.4"/>
			<rect x="1051.1" y="209.1" fill="#FFFFFF" width="15.1" height="53.4"/>
			<rect x="1075.7" y="209.1" fill="#FFFFFF" width="15.1" height="53.4"/>
			<rect x="1100.2" y="209.1" fill="#FFFFFF" width="15.1" height="53.4"/>
			<rect x="1124.7" y="209.1" fill="#FFFFFF" width="15.1" height="53.4"/>
			<rect x="1149.2" y="209.1" fill="#FFFFFF" width="15.1" height="53.4"/>
			<rect x="1026.6" y="275" fill="#FFFFFF" width="15.1" height="53.4"/>
			<rect x="1051.1" y="275" fill="#FFFFFF" width="15.1" height="53.4"/>
			<rect x="1026.6" y="340.9" fill="#FFFFFF" width="15.1" height="53.4"/>
			<rect x="1051.1" y="340.9" fill="#FFFFFF" width="15.1" height="53.4"/>
			<rect x="1075.7" y="340.9" fill="#FFFFFF" width="15.1" height="53.4"/>
			<rect x="1100.2" y="340.9" fill="#FFFFFF" width="15.1" height="53.4"/>
			<rect x="1125.2" y="340.9" fill="#FFFFFF" width="15.1" height="53.4"/>
			<rect x="1150.3" y="340.9" fill="#FFFFFF" width="15.1" height="53.4"/>
			<rect x="1175.3" y="340.9" fill="#FFFFFF" width="15.1" height="53.4"/>
		</g>
		<g>
			<rect x="195.1" y="77.4" fill="#FFFFFF" width="15.1" height="53.4"/>
			<rect x="195.1" y="143.3" fill="#FFFFFF" width="15.1" height="53.4"/>
			<rect x="195.1" y="209.2" fill="#FFFFFF" width="15.1" height="53.4"/>
			<rect x="195.1" y="275.1" fill="#FFFFFF" width="15.1" height="53.4"/>
			<rect x="195.1" y="341" fill="#FFFFFF" width="15.1" height="53.4"/>
			<rect x="170.6" y="77.4" fill="#FFFFFF" width="15.1" height="53.4"/>
			<rect x="146.1" y="77.4" fill="#FFFFFF" width="15.1" height="53.4"/>
			<rect x="121.6" y="77.4" fill="#FFFFFF" width="15.1" height="53.4"/>
			<rect x="97.1" y="77.4" fill="#FFFFFF" width="15.1" height="53.4"/>
			<rect x="72.6" y="77.4" fill="#FFFFFF" width="15.1" height="53.4"/>
			<rect x="48" y="77.4" fill="#FFFFFF" width="15.1" height="53.4"/>
			<rect x="23.5" y="77.4" fill="#FFFFFF" width="15.1" height="53.4"/>
			<rect x="0" y="77.4" fill="#FFFFFF" width="15.1" height="53.4"/>
			<rect x="170.6" y="143.3" fill="#FFFFFF" width="15.1" height="53.4"/>
			<rect x="146.1" y="143.3" fill="#FFFFFF" width="15.1" height="53.4"/>
			<rect x="121.6" y="143.3" fill="#FFFFFF" width="15.1" height="53.4"/>
			<rect x="97.1" y="143.3" fill="#FFFFFF" width="15.1" height="53.4"/>
			<rect x="170.6" y="209.2" fill="#FFFFFF" width="15.1" height="53.4"/>
			<rect x="146.1" y="209.2" fill="#FFFFFF" width="15.1" height="53.4"/>
			<rect x="121.6" y="209.2" fill="#FFFFFF" width="15.1" height="53.4"/>
			<rect x="97.1" y="209.2" fill="#FFFFFF" width="15.1" height="53.4"/>
			<rect x="72.6" y="209.2" fill="#FFFFFF" width="15.1" height="53.4"/>
			<rect x="48" y="209.2" fill="#FFFFFF" width="15.1" height="53.4"/>
			<rect x="170.6" y="275.1" fill="#FFFFFF" width="15.1" height="53.4"/>
			<rect x="146.1" y="275.1" fill="#FFFFFF" width="15.1" height="53.4"/>
			<rect x="170.6" y="341" fill="#FFFFFF" width="15.1" height="53.4"/>
			<rect x="146.1" y="341" fill="#FFFFFF" width="15.1" height="53.4"/>
			<rect x="121.6" y="341" fill="#FFFFFF" width="15.1" height="53.4"/>
			<rect x="97.1" y="341" fill="#FFFFFF" width="15.1" height="53.4"/>
			<rect x="72" y="341" fill="#FFFFFF" width="15.1" height="53.4"/>
			<rect x="47" y="341" fill="#FFFFFF" width="15.1" height="53.4"/>
			<rect x="21.9" y="341" fill="#FFFFFF" width="15.1" height="53.4"/>
		</g>
		
			<text transform="matrix(1.0067 0 0 0.95 253.6374 340.8232)" fill="#FFFFFF" font-family="'FjallaOne-Regular'" font-size="272.9803" letter-spacing="7.9">KOSSA</text>
		<path fill="none" stroke="#FFFFFF" stroke-width="11.1854" stroke-miterlimit="10" d="M989.4,435.5H223c-0.1,0-0.2-0.1-0.2-0.2
			V36.5c0-0.1,0.1-0.2,0.2-0.2h766.4c0.1,0,0.2,0.1,0.2,0.2v398.8C989.6,435.4,989.5,435.5,989.4,435.5z"/>
	</g>
	
		<line fill="none" stroke="#FFFFFF" stroke-width="8" stroke-linecap="round" stroke-miterlimit="10" x1="447.9" y1="4" x2="764.5" y2="4"/>
	
		<line fill="none" stroke="#FFFFFF" stroke-width="8" stroke-linecap="round" stroke-miterlimit="10" x1="447.9" y1="469" x2="764.5" y2="469"/>
</g>
</svg>
