<?xml version="1.0" encoding="utf-8"?>
<!-- Generator: Adobe Illustrator 18.0.0, SVG Export Plug-In . SVG Version: 6.00 Build 0)  -->
<!DOCTYPE svg PUBLIC "-//W3C//DTD SVG 1.1//EN" "http://www.w3.org/Graphics/SVG/1.1/DTD/svg11.dtd">
<svg version="1.1" id="knews" xmlns="http://www.w3.org/2000/svg" xmlns:xlink="http://www.w3.org/1999/xlink" x="0px" y="0px"
	 viewBox="0 0 2759.4 931.2" enable-background="new 0 0 2759.4 931.2" xml:space="preserve">
<path fill="#FFFFFF" d="M377.7,435.7c0,13,0.5,30.8,2.4,54.5L185.4,50.7L36,51.6c0,284.8,0,563.8,0,848.7
	c41-16.9,61.7-24.6,103.6-40.5l1-532c0-4.3-0.5-29.9-0.5-29.9l223.1,491.6c46.3-14.5,69.9-20.7,116.6-33.3
	c1.9-237.1,3.9-474.7,6.3-711.8l-105.1,2.4L377.7,435.7z"/>
<path fill="#FFFFFF" d="M1157.4,151.9c0-46.3,0-68.9-0.5-112.3c-141.2,0-282.4,0-423.6,1c-1,219.8-1.9,439-2.9,659.3
	c142.2-25.5,283.9-42.4,427-52.5c0-45.3,0-68.9,0-116.6c-94.9,4.8-190.4,10.6-284.8,24.1c0-55.4,0-83.9,0-141.7
	c74.7-7.2,149.4-11.6,224.1-14.9c0-47.2,0-71.3,0-118.6c-74.2,2.4-149.4,6.3-223.6,9.6c0-53.5,0-80.5,0-132.5
	C967.6,156.2,1062.5,152.8,1157.4,151.9z"/>
<path fill="#FFFFFF" d="M1895.7,433.3c-3.9,18.8-6.7,32.3-8.7,40.5c-31.8-145.5-64.1-290.6-100.7-435.2c-53,0-79,0-131.6,0
	c-34.2,136.9-65.1,274.2-96.9,411.6c-1.9-8.7-3.9-14.9-4.8-19.3c-2.9-11.6-4.3-18.3-4.8-20.2c-27-123.9-54.9-248.2-84.3-372
	c-57.3,0-85.3,0-142.6,0c54,201,101.7,403.4,156.1,603.8c55.4,1.9,82.4,3.9,137.3,7.2c33.7-134.5,63.1-268.9,94-403.8
	c33.3,141.2,65.5,281.9,99.8,423.1c55.4,7.2,82.4,11.1,137.3,20.7c54.9-214.9,92.5-433.7,139.3-650.1c-42.9,0-64.1,0-108.4-1
	C1948.7,170.2,1922.7,301.7,1895.7,433.3z"/>
<path fill="#FFFFFF" d="M2698.6,503.2c-1-3.9-3.4-8.2-5.3-11.6c-50.6-94.5-134-142.6-231.3-181.2c-35.7-14-58.8-28.4-69.4-42.4
	c-41.9-57.8-3.9-117.6,62.6-115.2c51.6,1.4,87.2,32.3,105.1,101.7c47.7-19.8,72.3-29.4,124.3-49.6
	c-28.4-118.1-122.4-174.5-239.5-174c-65.5,0.5-114.7,16.4-149.4,55.4c-47.7,53-62.2,134.5-45.8,202.9
	c17.8,75.2,69.9,113.3,135.9,143.1c35.2,15.9,69.4,34.2,100.7,57.3c33.7,25.1,63.6,49.2,79,88.7c25.5,66.5,1.4,143.1-81.9,130.1
	c-45.3-6.7-85.3-35.2-108.4-74.7c-3.4-5.8-27.5-55.4-26.5-55.4l-123.9-1.9c10.1,49.6,41,120.5,86.7,163.4
	c43.9,41.4,107.9,69.4,168.7,81c38.6,6.7,64.1,9.6,117.6-7.2c17.8-6.3,32.8-16.9,47.7-28c46.3-33.3,68.9-72.8,76.1-130.1
	C2728,602.9,2715,551.4,2698.6,503.2z"/>
</svg>
