<?xml version="1.0" encoding="utf-8"?>
<!-- Generator: Adobe Illustrator 18.0.0, SVG Export Plug-In . SVG Version: 6.00 Build 0)  -->
<!DOCTYPE svg PUBLIC "-//W3C//DTD SVG 1.1//EN" "http://www.w3.org/Graphics/SVG/1.1/DTD/svg11.dtd">
<svg version="1.1" id="play" xmlns="http://www.w3.org/2000/svg" xmlns:xlink="http://www.w3.org/1999/xlink" x="0px" y="0px"
	 viewBox="0 0 2745.8 969.1" enable-background="new 0 0 2745.8 969.1" xml:space="preserve">
<path fill="#FFFFFF" d="M446.2,41.7c-32.3-13-78.1-19.3-138.3-19.3H38v923.4h4.8c44.3-33.7,97.3-64.6,158.1-92.5V451.8h112.8
	c48.7,0,84.8-2.9,107.5-8.7c22.7-6.3,46.7-18.3,71.3-37.1c24.6-18.3,43.4-43.9,56.9-76.1c13.5-32.3,19.8-65.1,19.8-98.8
	c1-46.7-11.6-87.7-37.1-120.5S478.5,54.7,446.2,41.7z M384.5,300.9c-15.9,18.3-43.9,27.5-83.4,27.5H196.5V147.2h104.1
	c36.1,0,63.6,8.2,81.4,24.6c17.8,16.4,26.5,38.6,26.5,66.5C408.1,260.9,400.9,282.1,384.5,300.9z"/>
<path fill="#FFFFFF" d="M906.9,22.4H744.5v686.7c134.9-20.2,281.4-33.3,434.7-37.6v-121l-272.3,20.7V22.4z"/>
<path fill="#FFFFFF" d="M1786.4,22.4h-185.5l-174,543.6l-34.7,107.9c46.7,1.9,92.5,4.8,137.8,8.2l35.7-115.7l227.9,34.2l37.1,118.6
	c65.5,11.6,128.2,24.6,187.5,39.5L1956,566L1786.4,22.4z M1602.8,439.3l73.3-240.5l85.8,260.7L1602.8,439.3z"/>
<path fill="#FFFFFF" d="M2558.4,22.9l-136.9,259.3L2283.7,22.9H2118l214.9,396.6v436.1c60.2,27.5,112.8,58.3,156.6,91.1h3.4V453.2
	l214.9-430.8L2558.4,22.9z"/>
</svg>
